<mxfile host="app.diagrams.net" modified="2024-05-14T18:17:58.105Z" agent="Mozilla/5.0 (X11; Linux x86_64; rv:109.0) Gecko/20100101 Firefox/115.0" etag="590y3yrnAD30XJ7OquUM" version="24.4.0" type="device">
  <diagram id="C5RBs43oDa-KdzZeNtuy" name="Page-1">
    <mxGraphModel dx="2607" dy="2544" grid="1" gridSize="10" guides="1" tooltips="1" connect="1" arrows="1" fold="1" page="1" pageScale="1" pageWidth="827" pageHeight="1169" math="0" shadow="0">
      <root>
        <mxCell id="WIyWlLk6GJQsqaUBKTNV-0" />
        <mxCell id="WIyWlLk6GJQsqaUBKTNV-1" parent="WIyWlLk6GJQsqaUBKTNV-0" />
        <mxCell id="uRP_q7YqhGeEKX3p05OK-65" style="edgeStyle=orthogonalEdgeStyle;rounded=0;orthogonalLoop=1;jettySize=auto;html=1;exitX=1;exitY=0.5;exitDx=0;exitDy=0;entryX=0;entryY=0.5;entryDx=0;entryDy=0;" parent="WIyWlLk6GJQsqaUBKTNV-1" source="uRP_q7YqhGeEKX3p05OK-1" target="uRP_q7YqhGeEKX3p05OK-64" edge="1">
          <mxGeometry relative="1" as="geometry" />
        </mxCell>
        <mxCell id="uRP_q7YqhGeEKX3p05OK-1" value="User" style="ellipse;whiteSpace=wrap;html=1;aspect=fixed;fillColor=#d5e8d4;strokeColor=#82b366;" parent="WIyWlLk6GJQsqaUBKTNV-1" vertex="1">
          <mxGeometry x="30" y="200" width="40" height="40" as="geometry" />
        </mxCell>
        <mxCell id="uRP_q7YqhGeEKX3p05OK-96" style="edgeStyle=orthogonalEdgeStyle;rounded=0;orthogonalLoop=1;jettySize=auto;html=1;exitX=0.5;exitY=1;exitDx=0;exitDy=0;entryX=0.5;entryY=0;entryDx=0;entryDy=0;" parent="WIyWlLk6GJQsqaUBKTNV-1" source="uRP_q7YqhGeEKX3p05OK-64" target="uRP_q7YqhGeEKX3p05OK-93" edge="1">
          <mxGeometry relative="1" as="geometry" />
        </mxCell>
        <mxCell id="uRP_q7YqhGeEKX3p05OK-64" value="Arrive sur la page d&#39;accueil" style="rounded=1;whiteSpace=wrap;html=1;" parent="WIyWlLk6GJQsqaUBKTNV-1" vertex="1">
          <mxGeometry x="110" y="205" width="120" height="30" as="geometry" />
        </mxCell>
        <mxCell id="uRP_q7YqhGeEKX3p05OK-70" style="edgeStyle=orthogonalEdgeStyle;rounded=0;orthogonalLoop=1;jettySize=auto;html=1;exitX=0.5;exitY=1;exitDx=0;exitDy=0;entryX=0.5;entryY=0;entryDx=0;entryDy=0;" parent="WIyWlLk6GJQsqaUBKTNV-1" source="uRP_q7YqhGeEKX3p05OK-66" target="uRP_q7YqhGeEKX3p05OK-69" edge="1">
          <mxGeometry relative="1" as="geometry" />
        </mxCell>
        <mxCell id="uRP_q7YqhGeEKX3p05OK-66" value="Va sur la page de connection" style="rounded=1;whiteSpace=wrap;html=1;" parent="WIyWlLk6GJQsqaUBKTNV-1" vertex="1">
          <mxGeometry x="290" y="290" width="120" height="30" as="geometry" />
        </mxCell>
        <mxCell id="uRP_q7YqhGeEKX3p05OK-73" style="edgeStyle=orthogonalEdgeStyle;rounded=0;orthogonalLoop=1;jettySize=auto;html=1;exitX=0.5;exitY=1;exitDx=0;exitDy=0;entryX=0.5;entryY=0;entryDx=0;entryDy=0;" parent="WIyWlLk6GJQsqaUBKTNV-1" source="uRP_q7YqhGeEKX3p05OK-69" target="uRP_q7YqhGeEKX3p05OK-72" edge="1">
          <mxGeometry relative="1" as="geometry" />
        </mxCell>
        <mxCell id="uRP_q7YqhGeEKX3p05OK-76" value="Non" style="edgeLabel;html=1;align=center;verticalAlign=middle;resizable=0;points=[];" parent="uRP_q7YqhGeEKX3p05OK-73" vertex="1" connectable="0">
          <mxGeometry x="-0.25" relative="1" as="geometry">
            <mxPoint x="10" as="offset" />
          </mxGeometry>
        </mxCell>
        <mxCell id="uRP_q7YqhGeEKX3p05OK-74" style="edgeStyle=orthogonalEdgeStyle;rounded=0;orthogonalLoop=1;jettySize=auto;html=1;exitX=1;exitY=0.5;exitDx=0;exitDy=0;entryX=0;entryY=0.5;entryDx=0;entryDy=0;" parent="WIyWlLk6GJQsqaUBKTNV-1" source="uRP_q7YqhGeEKX3p05OK-69" target="uRP_q7YqhGeEKX3p05OK-71" edge="1">
          <mxGeometry relative="1" as="geometry" />
        </mxCell>
        <mxCell id="uRP_q7YqhGeEKX3p05OK-75" value="oui" style="edgeLabel;html=1;align=center;verticalAlign=middle;resizable=0;points=[];" parent="uRP_q7YqhGeEKX3p05OK-74" vertex="1" connectable="0">
          <mxGeometry x="-0.5" y="-3" relative="1" as="geometry">
            <mxPoint x="-1" y="-13" as="offset" />
          </mxGeometry>
        </mxCell>
        <mxCell id="uRP_q7YqhGeEKX3p05OK-69" value="A un compte ?" style="rhombus;whiteSpace=wrap;html=1;" parent="WIyWlLk6GJQsqaUBKTNV-1" vertex="1">
          <mxGeometry x="310" y="355" width="80" height="80" as="geometry" />
        </mxCell>
        <mxCell id="N0TiDbGJa8KcJAVbkekZ-2" style="edgeStyle=orthogonalEdgeStyle;rounded=0;orthogonalLoop=1;jettySize=auto;html=1;entryX=0.5;entryY=0;entryDx=0;entryDy=0;" parent="WIyWlLk6GJQsqaUBKTNV-1" source="uRP_q7YqhGeEKX3p05OK-72" target="N0TiDbGJa8KcJAVbkekZ-1" edge="1">
          <mxGeometry relative="1" as="geometry" />
        </mxCell>
        <mxCell id="uRP_q7YqhGeEKX3p05OK-72" value="Crée un compte : verified = false" style="rounded=1;whiteSpace=wrap;html=1;fillColor=#ffe6cc;strokeColor=#d79b00;" parent="WIyWlLk6GJQsqaUBKTNV-1" vertex="1">
          <mxGeometry x="290" y="465" width="120" height="30" as="geometry" />
        </mxCell>
        <mxCell id="uRP_q7YqhGeEKX3p05OK-80" style="edgeStyle=orthogonalEdgeStyle;rounded=0;orthogonalLoop=1;jettySize=auto;html=1;exitX=1;exitY=0.5;exitDx=0;exitDy=0;entryX=0;entryY=0.5;entryDx=0;entryDy=0;" parent="WIyWlLk6GJQsqaUBKTNV-1" source="uRP_q7YqhGeEKX3p05OK-78" target="uRP_q7YqhGeEKX3p05OK-66" edge="1">
          <mxGeometry relative="1" as="geometry" />
        </mxCell>
        <mxCell id="uRP_q7YqhGeEKX3p05OK-81" value="Non" style="edgeLabel;html=1;align=center;verticalAlign=middle;resizable=0;points=[];" parent="uRP_q7YqhGeEKX3p05OK-80" vertex="1" connectable="0">
          <mxGeometry x="-0.4353" relative="1" as="geometry">
            <mxPoint x="-14" y="-10" as="offset" />
          </mxGeometry>
        </mxCell>
        <mxCell id="uRP_q7YqhGeEKX3p05OK-84" style="edgeStyle=orthogonalEdgeStyle;rounded=0;orthogonalLoop=1;jettySize=auto;html=1;exitX=0.5;exitY=1;exitDx=0;exitDy=0;entryX=0;entryY=0.5;entryDx=0;entryDy=0;" parent="WIyWlLk6GJQsqaUBKTNV-1" source="uRP_q7YqhGeEKX3p05OK-78" target="uRP_q7YqhGeEKX3p05OK-83" edge="1">
          <mxGeometry relative="1" as="geometry" />
        </mxCell>
        <mxCell id="uRP_q7YqhGeEKX3p05OK-89" value="Oui" style="edgeLabel;html=1;align=center;verticalAlign=middle;resizable=0;points=[];" parent="uRP_q7YqhGeEKX3p05OK-84" vertex="1" connectable="0">
          <mxGeometry x="-0.8975" y="1" relative="1" as="geometry">
            <mxPoint x="9" y="-11" as="offset" />
          </mxGeometry>
        </mxCell>
        <mxCell id="uRP_q7YqhGeEKX3p05OK-78" value="Connecté ?" style="rhombus;whiteSpace=wrap;html=1;" parent="WIyWlLk6GJQsqaUBKTNV-1" vertex="1">
          <mxGeometry x="130" y="370" width="80" height="80" as="geometry" />
        </mxCell>
        <mxCell id="uRP_q7YqhGeEKX3p05OK-107" style="edgeStyle=orthogonalEdgeStyle;rounded=0;orthogonalLoop=1;jettySize=auto;html=1;exitX=0.5;exitY=0;exitDx=0;exitDy=0;entryX=0.5;entryY=1;entryDx=0;entryDy=0;" parent="WIyWlLk6GJQsqaUBKTNV-1" source="uRP_q7YqhGeEKX3p05OK-83" target="uRP_q7YqhGeEKX3p05OK-105" edge="1">
          <mxGeometry relative="1" as="geometry" />
        </mxCell>
        <mxCell id="N0TiDbGJa8KcJAVbkekZ-4" value="Oui" style="edgeLabel;html=1;align=center;verticalAlign=middle;resizable=0;points=[];" parent="uRP_q7YqhGeEKX3p05OK-107" connectable="0" vertex="1">
          <mxGeometry x="-0.3333" y="-1" relative="1" as="geometry">
            <mxPoint x="9" as="offset" />
          </mxGeometry>
        </mxCell>
        <mxCell id="N0TiDbGJa8KcJAVbkekZ-71" style="edgeStyle=orthogonalEdgeStyle;rounded=0;orthogonalLoop=1;jettySize=auto;html=1;exitX=1;exitY=0.5;exitDx=0;exitDy=0;entryX=0;entryY=0.5;entryDx=0;entryDy=0;" parent="WIyWlLk6GJQsqaUBKTNV-1" source="uRP_q7YqhGeEKX3p05OK-83" target="uRP_q7YqhGeEKX3p05OK-85" edge="1">
          <mxGeometry relative="1" as="geometry">
            <mxPoint x="870" y="610" as="targetPoint" />
          </mxGeometry>
        </mxCell>
        <mxCell id="N0TiDbGJa8KcJAVbkekZ-116" value="Non" style="edgeLabel;html=1;align=center;verticalAlign=middle;resizable=0;points=[];" parent="N0TiDbGJa8KcJAVbkekZ-71" connectable="0" vertex="1">
          <mxGeometry x="-0.788" y="3" relative="1" as="geometry">
            <mxPoint x="-22" y="-7" as="offset" />
          </mxGeometry>
        </mxCell>
        <mxCell id="uRP_q7YqhGeEKX3p05OK-83" value="Voir les défis?" style="rhombus;whiteSpace=wrap;html=1;" parent="WIyWlLk6GJQsqaUBKTNV-1" vertex="1">
          <mxGeometry x="670" y="560" width="100" height="100" as="geometry" />
        </mxCell>
        <mxCell id="uRP_q7YqhGeEKX3p05OK-119" style="edgeStyle=orthogonalEdgeStyle;rounded=0;orthogonalLoop=1;jettySize=auto;html=1;exitX=0.5;exitY=0;exitDx=0;exitDy=0;entryX=0.5;entryY=1;entryDx=0;entryDy=0;" parent="WIyWlLk6GJQsqaUBKTNV-1" target="uRP_q7YqhGeEKX3p05OK-115" edge="1">
          <mxGeometry relative="1" as="geometry">
            <mxPoint x="1219" y="510" as="sourcePoint" />
          </mxGeometry>
        </mxCell>
        <mxCell id="N0TiDbGJa8KcJAVbkekZ-56" style="edgeStyle=orthogonalEdgeStyle;rounded=0;orthogonalLoop=1;jettySize=auto;html=1;exitX=0.5;exitY=0;exitDx=0;exitDy=0;entryX=0.5;entryY=1;entryDx=0;entryDy=0;" parent="WIyWlLk6GJQsqaUBKTNV-1" source="uRP_q7YqhGeEKX3p05OK-85" target="uRP_q7YqhGeEKX3p05OK-115" edge="1">
          <mxGeometry relative="1" as="geometry" />
        </mxCell>
        <mxCell id="N0TiDbGJa8KcJAVbkekZ-58" value="Oui" style="edgeLabel;html=1;align=center;verticalAlign=middle;resizable=0;points=[];" parent="N0TiDbGJa8KcJAVbkekZ-56" connectable="0" vertex="1">
          <mxGeometry x="-0.5556" relative="1" as="geometry">
            <mxPoint x="10" as="offset" />
          </mxGeometry>
        </mxCell>
        <mxCell id="N0TiDbGJa8KcJAVbkekZ-127" style="edgeStyle=orthogonalEdgeStyle;rounded=0;orthogonalLoop=1;jettySize=auto;html=1;exitX=1;exitY=0.5;exitDx=0;exitDy=0;entryX=0;entryY=0.5;entryDx=0;entryDy=0;" parent="WIyWlLk6GJQsqaUBKTNV-1" source="uRP_q7YqhGeEKX3p05OK-85" target="N0TiDbGJa8KcJAVbkekZ-118" edge="1">
          <mxGeometry relative="1" as="geometry" />
        </mxCell>
        <mxCell id="N0TiDbGJa8KcJAVbkekZ-128" value="Non" style="edgeLabel;html=1;align=center;verticalAlign=middle;resizable=0;points=[];" parent="N0TiDbGJa8KcJAVbkekZ-127" connectable="0" vertex="1">
          <mxGeometry x="-0.8921" y="1" relative="1" as="geometry">
            <mxPoint x="-20" y="-9" as="offset" />
          </mxGeometry>
        </mxCell>
        <mxCell id="uRP_q7YqhGeEKX3p05OK-85" value="Voir son profil ?" style="rhombus;whiteSpace=wrap;html=1;" parent="WIyWlLk6GJQsqaUBKTNV-1" vertex="1">
          <mxGeometry x="1174" y="560" width="100" height="100" as="geometry" />
        </mxCell>
        <mxCell id="uRP_q7YqhGeEKX3p05OK-95" style="edgeStyle=orthogonalEdgeStyle;rounded=0;orthogonalLoop=1;jettySize=auto;html=1;exitX=0;exitY=0.5;exitDx=0;exitDy=0;entryX=1;entryY=0.5;entryDx=0;entryDy=0;" parent="WIyWlLk6GJQsqaUBKTNV-1" source="uRP_q7YqhGeEKX3p05OK-93" target="uRP_q7YqhGeEKX3p05OK-94" edge="1">
          <mxGeometry relative="1" as="geometry" />
        </mxCell>
        <mxCell id="uRP_q7YqhGeEKX3p05OK-99" value="Non" style="edgeLabel;html=1;align=center;verticalAlign=middle;resizable=0;points=[];" parent="uRP_q7YqhGeEKX3p05OK-95" vertex="1" connectable="0">
          <mxGeometry x="-0.4933" y="2" relative="1" as="geometry">
            <mxPoint x="-1" y="-12" as="offset" />
          </mxGeometry>
        </mxCell>
        <mxCell id="uRP_q7YqhGeEKX3p05OK-97" style="edgeStyle=orthogonalEdgeStyle;rounded=0;orthogonalLoop=1;jettySize=auto;html=1;exitX=0.5;exitY=1;exitDx=0;exitDy=0;entryX=0.5;entryY=0;entryDx=0;entryDy=0;" parent="WIyWlLk6GJQsqaUBKTNV-1" source="uRP_q7YqhGeEKX3p05OK-93" target="uRP_q7YqhGeEKX3p05OK-78" edge="1">
          <mxGeometry relative="1" as="geometry" />
        </mxCell>
        <mxCell id="uRP_q7YqhGeEKX3p05OK-100" value="Oui" style="edgeLabel;html=1;align=center;verticalAlign=middle;resizable=0;points=[];" parent="uRP_q7YqhGeEKX3p05OK-97" vertex="1" connectable="0">
          <mxGeometry x="-0.2" y="3" relative="1" as="geometry">
            <mxPoint x="7" as="offset" />
          </mxGeometry>
        </mxCell>
        <mxCell id="uRP_q7YqhGeEKX3p05OK-93" value="Besoin d&#39;utiliser l&#39;application ?" style="rhombus;whiteSpace=wrap;html=1;" parent="WIyWlLk6GJQsqaUBKTNV-1" vertex="1">
          <mxGeometry x="130" y="260" width="80" height="80" as="geometry" />
        </mxCell>
        <mxCell id="uRP_q7YqhGeEKX3p05OK-94" value="&lt;div&gt;&lt;br&gt;&lt;/div&gt;&lt;div&gt;&lt;br&gt;&lt;/div&gt;&lt;div&gt;&lt;br&gt;&lt;/div&gt;&lt;div&gt;&lt;br&gt;&lt;/div&gt;&lt;div&gt;Fermer&amp;nbsp;&lt;/div&gt;&lt;div&gt;l&#39;application&lt;br&gt;&lt;/div&gt;" style="ellipse;html=1;shape=endState;fillColor=#000000;strokeColor=#ff0000;" parent="WIyWlLk6GJQsqaUBKTNV-1" vertex="1">
          <mxGeometry x="35" y="285" width="30" height="30" as="geometry" />
        </mxCell>
        <mxCell id="uRP_q7YqhGeEKX3p05OK-108" style="edgeStyle=orthogonalEdgeStyle;rounded=0;orthogonalLoop=1;jettySize=auto;html=1;exitX=0.5;exitY=0;exitDx=0;exitDy=0;entryX=0.5;entryY=1;entryDx=0;entryDy=0;" parent="WIyWlLk6GJQsqaUBKTNV-1" source="uRP_q7YqhGeEKX3p05OK-105" target="N0TiDbGJa8KcJAVbkekZ-5" edge="1">
          <mxGeometry relative="1" as="geometry">
            <mxPoint x="720" y="450" as="targetPoint" />
          </mxGeometry>
        </mxCell>
        <mxCell id="uRP_q7YqhGeEKX3p05OK-105" value="Cliquer sur &quot;Liste des défis&quot;" style="rounded=1;whiteSpace=wrap;html=1;" parent="WIyWlLk6GJQsqaUBKTNV-1" vertex="1">
          <mxGeometry x="660" y="490" width="120" height="40" as="geometry" />
        </mxCell>
        <mxCell id="N0TiDbGJa8KcJAVbkekZ-24" style="edgeStyle=orthogonalEdgeStyle;rounded=0;orthogonalLoop=1;jettySize=auto;html=1;exitX=0.5;exitY=0;exitDx=0;exitDy=0;entryX=1;entryY=1;entryDx=0;entryDy=0;" parent="WIyWlLk6GJQsqaUBKTNV-1" source="uRP_q7YqhGeEKX3p05OK-110" target="N0TiDbGJa8KcJAVbkekZ-19" edge="1">
          <mxGeometry relative="1" as="geometry" />
        </mxCell>
        <mxCell id="uRP_q7YqhGeEKX3p05OK-110" value="Choisir les filtres et valider" style="rounded=1;whiteSpace=wrap;html=1;" parent="WIyWlLk6GJQsqaUBKTNV-1" vertex="1">
          <mxGeometry x="810" y="420" width="120" height="30" as="geometry" />
        </mxCell>
        <mxCell id="N0TiDbGJa8KcJAVbkekZ-16" style="edgeStyle=orthogonalEdgeStyle;rounded=0;orthogonalLoop=1;jettySize=auto;html=1;exitX=0.5;exitY=0;exitDx=0;exitDy=0;entryX=0.5;entryY=1;entryDx=0;entryDy=0;" parent="WIyWlLk6GJQsqaUBKTNV-1" source="N0TiDbGJa8KcJAVbkekZ-30" target="N0TiDbGJa8KcJAVbkekZ-15" edge="1">
          <mxGeometry relative="1" as="geometry">
            <mxPoint x="720" y="-67" as="sourcePoint" />
          </mxGeometry>
        </mxCell>
        <mxCell id="N0TiDbGJa8KcJAVbkekZ-31" value="Non" style="edgeLabel;html=1;align=center;verticalAlign=middle;resizable=0;points=[];" parent="N0TiDbGJa8KcJAVbkekZ-16" connectable="0" vertex="1">
          <mxGeometry x="-0.05" y="1" relative="1" as="geometry">
            <mxPoint x="-19" y="9" as="offset" />
          </mxGeometry>
        </mxCell>
        <mxCell id="uRP_q7YqhGeEKX3p05OK-120" style="edgeStyle=orthogonalEdgeStyle;rounded=0;orthogonalLoop=1;jettySize=auto;html=1;exitX=0.5;exitY=0;exitDx=0;exitDy=0;entryX=0.5;entryY=1;entryDx=0;entryDy=0;" parent="WIyWlLk6GJQsqaUBKTNV-1" source="uRP_q7YqhGeEKX3p05OK-115" target="uRP_q7YqhGeEKX3p05OK-116" edge="1">
          <mxGeometry relative="1" as="geometry" />
        </mxCell>
        <mxCell id="uRP_q7YqhGeEKX3p05OK-115" value="Cliquer sur &quot;Mon compte&quot;" style="rounded=1;whiteSpace=wrap;html=1;" parent="WIyWlLk6GJQsqaUBKTNV-1" vertex="1">
          <mxGeometry x="1164" y="475" width="120" height="40" as="geometry" />
        </mxCell>
        <mxCell id="uRP_q7YqhGeEKX3p05OK-121" style="edgeStyle=orthogonalEdgeStyle;rounded=0;orthogonalLoop=1;jettySize=auto;html=1;exitX=0.5;exitY=0;exitDx=0;exitDy=0;entryX=0.5;entryY=1;entryDx=0;entryDy=0;" parent="WIyWlLk6GJQsqaUBKTNV-1" source="uRP_q7YqhGeEKX3p05OK-116" target="uRP_q7YqhGeEKX3p05OK-118" edge="1">
          <mxGeometry relative="1" as="geometry" />
        </mxCell>
        <mxCell id="uRP_q7YqhGeEKX3p05OK-122" value="Oui" style="edgeLabel;html=1;align=center;verticalAlign=middle;resizable=0;points=[];" parent="uRP_q7YqhGeEKX3p05OK-121" vertex="1" connectable="0">
          <mxGeometry x="-0.4" y="-1" relative="1" as="geometry">
            <mxPoint x="9" y="-4" as="offset" />
          </mxGeometry>
        </mxCell>
        <mxCell id="-m6p2qVeGGhmwzsAfYyK-21" style="edgeStyle=orthogonalEdgeStyle;rounded=0;orthogonalLoop=1;jettySize=auto;html=1;exitX=1;exitY=0.5;exitDx=0;exitDy=0;entryX=0;entryY=0.5;entryDx=0;entryDy=0;" edge="1" parent="WIyWlLk6GJQsqaUBKTNV-1" source="uRP_q7YqhGeEKX3p05OK-116" target="-m6p2qVeGGhmwzsAfYyK-20">
          <mxGeometry relative="1" as="geometry" />
        </mxCell>
        <mxCell id="-m6p2qVeGGhmwzsAfYyK-22" value="Non" style="edgeLabel;html=1;align=center;verticalAlign=middle;resizable=0;points=[];" vertex="1" connectable="0" parent="-m6p2qVeGGhmwzsAfYyK-21">
          <mxGeometry x="-0.5364" y="-2" relative="1" as="geometry">
            <mxPoint x="-24" y="-12" as="offset" />
          </mxGeometry>
        </mxCell>
        <mxCell id="uRP_q7YqhGeEKX3p05OK-116" value="Besoin de modifier son profil ?" style="rhombus;whiteSpace=wrap;html=1;" parent="WIyWlLk6GJQsqaUBKTNV-1" vertex="1">
          <mxGeometry x="1175" y="350" width="100" height="100" as="geometry" />
        </mxCell>
        <mxCell id="N0TiDbGJa8KcJAVbkekZ-65" style="edgeStyle=orthogonalEdgeStyle;rounded=0;orthogonalLoop=1;jettySize=auto;html=1;exitX=0.5;exitY=0;exitDx=0;exitDy=0;entryX=0.5;entryY=1;entryDx=0;entryDy=0;" parent="WIyWlLk6GJQsqaUBKTNV-1" source="uRP_q7YqhGeEKX3p05OK-118" target="N0TiDbGJa8KcJAVbkekZ-62" edge="1">
          <mxGeometry relative="1" as="geometry" />
        </mxCell>
        <mxCell id="uRP_q7YqhGeEKX3p05OK-118" value="Cliquer sur modifier à coté de l&#39;information concernée" style="rounded=1;whiteSpace=wrap;html=1;" parent="WIyWlLk6GJQsqaUBKTNV-1" vertex="1">
          <mxGeometry x="1160" y="265" width="130" height="50" as="geometry" />
        </mxCell>
        <mxCell id="N0TiDbGJa8KcJAVbkekZ-3" style="edgeStyle=orthogonalEdgeStyle;rounded=0;orthogonalLoop=1;jettySize=auto;html=1;exitX=1;exitY=0.5;exitDx=0;exitDy=0;entryX=0.5;entryY=1;entryDx=0;entryDy=0;" parent="WIyWlLk6GJQsqaUBKTNV-1" source="N0TiDbGJa8KcJAVbkekZ-1" target="uRP_q7YqhGeEKX3p05OK-71" edge="1">
          <mxGeometry relative="1" as="geometry" />
        </mxCell>
        <mxCell id="N0TiDbGJa8KcJAVbkekZ-1" value="&lt;div&gt;Vérifie son mail : &lt;br&gt;&lt;/div&gt;&lt;div&gt;verified = true&lt;br&gt;&lt;/div&gt;" style="rounded=1;whiteSpace=wrap;html=1;fillColor=#ffe6cc;strokeColor=#d79b00;" parent="WIyWlLk6GJQsqaUBKTNV-1" vertex="1">
          <mxGeometry x="290" y="530" width="120" height="30" as="geometry" />
        </mxCell>
        <mxCell id="N0TiDbGJa8KcJAVbkekZ-9" style="edgeStyle=orthogonalEdgeStyle;rounded=0;orthogonalLoop=1;jettySize=auto;html=1;exitX=1;exitY=0.5;exitDx=0;exitDy=0;entryX=0;entryY=0.5;entryDx=0;entryDy=0;" parent="WIyWlLk6GJQsqaUBKTNV-1" source="N0TiDbGJa8KcJAVbkekZ-5" target="uRP_q7YqhGeEKX3p05OK-110" edge="1">
          <mxGeometry relative="1" as="geometry" />
        </mxCell>
        <mxCell id="N0TiDbGJa8KcJAVbkekZ-13" value="Oui" style="edgeLabel;html=1;align=center;verticalAlign=middle;resizable=0;points=[];" parent="N0TiDbGJa8KcJAVbkekZ-9" connectable="0" vertex="1">
          <mxGeometry x="-0.5" relative="1" as="geometry">
            <mxPoint y="-15" as="offset" />
          </mxGeometry>
        </mxCell>
        <mxCell id="N0TiDbGJa8KcJAVbkekZ-20" style="edgeStyle=orthogonalEdgeStyle;rounded=0;orthogonalLoop=1;jettySize=auto;html=1;exitX=0.5;exitY=0;exitDx=0;exitDy=0;entryX=0.5;entryY=1;entryDx=0;entryDy=0;" parent="WIyWlLk6GJQsqaUBKTNV-1" source="N0TiDbGJa8KcJAVbkekZ-5" target="N0TiDbGJa8KcJAVbkekZ-19" edge="1">
          <mxGeometry relative="1" as="geometry" />
        </mxCell>
        <mxCell id="N0TiDbGJa8KcJAVbkekZ-21" value="Non" style="edgeLabel;html=1;align=center;verticalAlign=middle;resizable=0;points=[];" parent="N0TiDbGJa8KcJAVbkekZ-20" connectable="0" vertex="1">
          <mxGeometry x="-0.2667" relative="1" as="geometry">
            <mxPoint x="10" as="offset" />
          </mxGeometry>
        </mxCell>
        <mxCell id="N0TiDbGJa8KcJAVbkekZ-5" value="Besoin de trier ?" style="rhombus;whiteSpace=wrap;html=1;" parent="WIyWlLk6GJQsqaUBKTNV-1" vertex="1">
          <mxGeometry x="680" y="395" width="80" height="80" as="geometry" />
        </mxCell>
        <mxCell id="N0TiDbGJa8KcJAVbkekZ-45" style="edgeStyle=orthogonalEdgeStyle;rounded=0;orthogonalLoop=1;jettySize=auto;html=1;exitX=0;exitY=0.5;exitDx=0;exitDy=0;entryX=0;entryY=0.5;entryDx=0;entryDy=0;" parent="WIyWlLk6GJQsqaUBKTNV-1" source="N0TiDbGJa8KcJAVbkekZ-6" target="uRP_q7YqhGeEKX3p05OK-83" edge="1">
          <mxGeometry relative="1" as="geometry">
            <Array as="points">
              <mxPoint x="580" y="-140" />
              <mxPoint x="560" y="-140" />
              <mxPoint x="560" y="610" />
            </Array>
          </mxGeometry>
        </mxCell>
        <mxCell id="N0TiDbGJa8KcJAVbkekZ-46" value="Non" style="edgeLabel;html=1;align=center;verticalAlign=middle;resizable=0;points=[];" parent="N0TiDbGJa8KcJAVbkekZ-45" connectable="0" vertex="1">
          <mxGeometry x="-0.9676" y="1" relative="1" as="geometry">
            <mxPoint x="2" y="9" as="offset" />
          </mxGeometry>
        </mxCell>
        <mxCell id="N0TiDbGJa8KcJAVbkekZ-105" style="edgeStyle=orthogonalEdgeStyle;rounded=0;orthogonalLoop=1;jettySize=auto;html=1;exitX=0.5;exitY=1;exitDx=0;exitDy=0;entryX=0;entryY=0.5;entryDx=0;entryDy=0;" parent="WIyWlLk6GJQsqaUBKTNV-1" source="N0TiDbGJa8KcJAVbkekZ-6" target="N0TiDbGJa8KcJAVbkekZ-30" edge="1">
          <mxGeometry relative="1" as="geometry" />
        </mxCell>
        <mxCell id="N0TiDbGJa8KcJAVbkekZ-106" value="Oui" style="edgeLabel;html=1;align=center;verticalAlign=middle;resizable=0;points=[];" parent="N0TiDbGJa8KcJAVbkekZ-105" connectable="0" vertex="1">
          <mxGeometry x="-0.4571" y="-1" relative="1" as="geometry">
            <mxPoint x="-19" y="-21" as="offset" />
          </mxGeometry>
        </mxCell>
        <mxCell id="N0TiDbGJa8KcJAVbkekZ-6" value="A trouvé une solution ?" style="rhombus;whiteSpace=wrap;html=1;" parent="WIyWlLk6GJQsqaUBKTNV-1" vertex="1">
          <mxGeometry x="580" y="-177" width="80" height="80" as="geometry" />
        </mxCell>
        <mxCell id="-m6p2qVeGGhmwzsAfYyK-35" style="edgeStyle=orthogonalEdgeStyle;rounded=0;orthogonalLoop=1;jettySize=auto;html=1;exitX=0.5;exitY=0;exitDx=0;exitDy=0;entryX=0.5;entryY=1;entryDx=0;entryDy=0;" edge="1" parent="WIyWlLk6GJQsqaUBKTNV-1" source="N0TiDbGJa8KcJAVbkekZ-8" target="-m6p2qVeGGhmwzsAfYyK-32">
          <mxGeometry relative="1" as="geometry" />
        </mxCell>
        <mxCell id="N0TiDbGJa8KcJAVbkekZ-8" value="Sélectionner un défi" style="rounded=1;whiteSpace=wrap;html=1;" parent="WIyWlLk6GJQsqaUBKTNV-1" vertex="1">
          <mxGeometry x="660" y="200" width="120" height="30" as="geometry" />
        </mxCell>
        <mxCell id="N0TiDbGJa8KcJAVbkekZ-40" style="edgeStyle=orthogonalEdgeStyle;rounded=0;orthogonalLoop=1;jettySize=auto;html=1;exitX=0;exitY=0.5;exitDx=0;exitDy=0;entryX=1;entryY=0.5;entryDx=0;entryDy=0;" parent="WIyWlLk6GJQsqaUBKTNV-1" source="N0TiDbGJa8KcJAVbkekZ-15" target="N0TiDbGJa8KcJAVbkekZ-6" edge="1">
          <mxGeometry relative="1" as="geometry" />
        </mxCell>
        <mxCell id="N0TiDbGJa8KcJAVbkekZ-43" value="Oui" style="edgeLabel;html=1;align=center;verticalAlign=middle;resizable=0;points=[];" parent="N0TiDbGJa8KcJAVbkekZ-40" connectable="0" vertex="1">
          <mxGeometry x="-0.2667" y="2" relative="1" as="geometry">
            <mxPoint x="-1" y="8" as="offset" />
          </mxGeometry>
        </mxCell>
        <mxCell id="N0TiDbGJa8KcJAVbkekZ-42" style="edgeStyle=orthogonalEdgeStyle;rounded=0;orthogonalLoop=1;jettySize=auto;html=1;exitX=0.5;exitY=0;exitDx=0;exitDy=0;entryX=0;entryY=0.5;entryDx=0;entryDy=0;" parent="WIyWlLk6GJQsqaUBKTNV-1" source="N0TiDbGJa8KcJAVbkekZ-15" target="uRP_q7YqhGeEKX3p05OK-83" edge="1">
          <mxGeometry relative="1" as="geometry">
            <Array as="points">
              <mxPoint x="720" y="-200" />
              <mxPoint x="560" y="-200" />
              <mxPoint x="560" y="610" />
            </Array>
          </mxGeometry>
        </mxCell>
        <mxCell id="N0TiDbGJa8KcJAVbkekZ-49" value="Non" style="edgeLabel;html=1;align=center;verticalAlign=middle;resizable=0;points=[];" parent="N0TiDbGJa8KcJAVbkekZ-42" connectable="0" vertex="1">
          <mxGeometry x="-0.9833" y="-2" relative="1" as="geometry">
            <mxPoint x="18" y="9" as="offset" />
          </mxGeometry>
        </mxCell>
        <mxCell id="N0TiDbGJa8KcJAVbkekZ-15" value="Faire ce défi ?" style="rhombus;whiteSpace=wrap;html=1;" parent="WIyWlLk6GJQsqaUBKTNV-1" vertex="1">
          <mxGeometry x="680" y="-177" width="80" height="80" as="geometry" />
        </mxCell>
        <mxCell id="N0TiDbGJa8KcJAVbkekZ-22" style="edgeStyle=orthogonalEdgeStyle;rounded=0;orthogonalLoop=1;jettySize=auto;html=1;exitX=0.5;exitY=0;exitDx=0;exitDy=0;entryX=0.5;entryY=1;entryDx=0;entryDy=0;" parent="WIyWlLk6GJQsqaUBKTNV-1" source="N0TiDbGJa8KcJAVbkekZ-19" target="N0TiDbGJa8KcJAVbkekZ-8" edge="1">
          <mxGeometry relative="1" as="geometry" />
        </mxCell>
        <mxCell id="N0TiDbGJa8KcJAVbkekZ-23" value="Oui" style="edgeLabel;html=1;align=center;verticalAlign=middle;resizable=0;points=[];" parent="N0TiDbGJa8KcJAVbkekZ-22" connectable="0" vertex="1">
          <mxGeometry x="-0.1556" y="2" relative="1" as="geometry">
            <mxPoint x="12" y="4" as="offset" />
          </mxGeometry>
        </mxCell>
        <mxCell id="N0TiDbGJa8KcJAVbkekZ-70" style="edgeStyle=orthogonalEdgeStyle;rounded=0;orthogonalLoop=1;jettySize=auto;html=1;exitX=1;exitY=0.5;exitDx=0;exitDy=0;entryX=0;entryY=0.5;entryDx=0;entryDy=0;" parent="WIyWlLk6GJQsqaUBKTNV-1" source="N0TiDbGJa8KcJAVbkekZ-19" target="uRP_q7YqhGeEKX3p05OK-85" edge="1">
          <mxGeometry relative="1" as="geometry">
            <mxPoint x="880" y="318" as="targetPoint" />
          </mxGeometry>
        </mxCell>
        <mxCell id="N0TiDbGJa8KcJAVbkekZ-117" value="Non" style="edgeLabel;html=1;align=center;verticalAlign=middle;resizable=0;points=[];" parent="N0TiDbGJa8KcJAVbkekZ-70" connectable="0" vertex="1">
          <mxGeometry x="-0.9652" y="1" relative="1" as="geometry">
            <mxPoint y="-11" as="offset" />
          </mxGeometry>
        </mxCell>
        <mxCell id="N0TiDbGJa8KcJAVbkekZ-19" value="Accéder aux détails d&#39;un défi ?" style="rhombus;whiteSpace=wrap;html=1;" parent="WIyWlLk6GJQsqaUBKTNV-1" vertex="1">
          <mxGeometry x="667.5" y="270" width="105" height="95" as="geometry" />
        </mxCell>
        <mxCell id="N0TiDbGJa8KcJAVbkekZ-33" style="edgeStyle=orthogonalEdgeStyle;rounded=0;orthogonalLoop=1;jettySize=auto;html=1;exitX=1;exitY=0.5;exitDx=0;exitDy=0;entryX=0;entryY=0.5;entryDx=0;entryDy=0;" parent="WIyWlLk6GJQsqaUBKTNV-1" source="N0TiDbGJa8KcJAVbkekZ-30" target="N0TiDbGJa8KcJAVbkekZ-32" edge="1">
          <mxGeometry relative="1" as="geometry" />
        </mxCell>
        <mxCell id="N0TiDbGJa8KcJAVbkekZ-38" value="Oui" style="edgeLabel;html=1;align=center;verticalAlign=middle;resizable=0;points=[];" parent="N0TiDbGJa8KcJAVbkekZ-33" connectable="0" vertex="1">
          <mxGeometry x="-0.35" y="4" relative="1" as="geometry">
            <mxPoint x="-3" y="-11" as="offset" />
          </mxGeometry>
        </mxCell>
        <mxCell id="N0TiDbGJa8KcJAVbkekZ-47" style="edgeStyle=orthogonalEdgeStyle;rounded=0;orthogonalLoop=1;jettySize=auto;html=1;exitX=0.5;exitY=0;exitDx=0;exitDy=0;entryX=0.5;entryY=1;entryDx=0;entryDy=0;" parent="WIyWlLk6GJQsqaUBKTNV-1" source="N0TiDbGJa8KcJAVbkekZ-32" target="N0TiDbGJa8KcJAVbkekZ-34" edge="1">
          <mxGeometry relative="1" as="geometry" />
        </mxCell>
        <mxCell id="N0TiDbGJa8KcJAVbkekZ-32" value="Entrer le flag/solution dans la zone dédié" style="rounded=1;whiteSpace=wrap;html=1;" parent="WIyWlLk6GJQsqaUBKTNV-1" vertex="1">
          <mxGeometry x="800" y="-32" width="120" height="30" as="geometry" />
        </mxCell>
        <mxCell id="N0TiDbGJa8KcJAVbkekZ-48" style="edgeStyle=orthogonalEdgeStyle;rounded=0;orthogonalLoop=1;jettySize=auto;html=1;exitX=0.5;exitY=0;exitDx=0;exitDy=0;entryX=0;entryY=0.5;entryDx=0;entryDy=0;" parent="WIyWlLk6GJQsqaUBKTNV-1" source="N0TiDbGJa8KcJAVbkekZ-34" target="uRP_q7YqhGeEKX3p05OK-83" edge="1">
          <mxGeometry relative="1" as="geometry">
            <Array as="points">
              <mxPoint x="867" y="-200" />
              <mxPoint x="560" y="-200" />
              <mxPoint x="560" y="610" />
            </Array>
          </mxGeometry>
        </mxCell>
        <mxCell id="N0TiDbGJa8KcJAVbkekZ-50" value="Non" style="edgeLabel;html=1;align=center;verticalAlign=middle;resizable=0;points=[];" parent="N0TiDbGJa8KcJAVbkekZ-48" connectable="0" vertex="1">
          <mxGeometry x="-0.9595" y="-2" relative="1" as="geometry">
            <mxPoint x="-19" y="-17" as="offset" />
          </mxGeometry>
        </mxCell>
        <mxCell id="N0TiDbGJa8KcJAVbkekZ-52" style="edgeStyle=orthogonalEdgeStyle;rounded=0;orthogonalLoop=1;jettySize=auto;html=1;exitX=1;exitY=0.5;exitDx=0;exitDy=0;entryX=0;entryY=0.5;entryDx=0;entryDy=0;" parent="WIyWlLk6GJQsqaUBKTNV-1" source="N0TiDbGJa8KcJAVbkekZ-34" target="N0TiDbGJa8KcJAVbkekZ-51" edge="1">
          <mxGeometry relative="1" as="geometry" />
        </mxCell>
        <mxCell id="N0TiDbGJa8KcJAVbkekZ-54" value="Oui" style="edgeLabel;html=1;align=center;verticalAlign=middle;resizable=0;points=[];" parent="N0TiDbGJa8KcJAVbkekZ-52" connectable="0" vertex="1">
          <mxGeometry x="-0.2075" y="4" relative="1" as="geometry">
            <mxPoint as="offset" />
          </mxGeometry>
        </mxCell>
        <mxCell id="N0TiDbGJa8KcJAVbkekZ-34" value="Flag/solution correct ?" style="rhombus;whiteSpace=wrap;html=1;" parent="WIyWlLk6GJQsqaUBKTNV-1" vertex="1">
          <mxGeometry x="827" y="-147" width="80" height="80" as="geometry" />
        </mxCell>
        <mxCell id="N0TiDbGJa8KcJAVbkekZ-55" style="edgeStyle=orthogonalEdgeStyle;rounded=0;orthogonalLoop=1;jettySize=auto;html=1;exitX=0.5;exitY=0;exitDx=0;exitDy=0;entryX=0;entryY=0.5;entryDx=0;entryDy=0;" parent="WIyWlLk6GJQsqaUBKTNV-1" source="N0TiDbGJa8KcJAVbkekZ-51" target="uRP_q7YqhGeEKX3p05OK-83" edge="1">
          <mxGeometry relative="1" as="geometry">
            <Array as="points">
              <mxPoint x="1000" y="-135" />
              <mxPoint x="1000" y="-200" />
              <mxPoint x="560" y="-200" />
              <mxPoint x="560" y="610" />
            </Array>
          </mxGeometry>
        </mxCell>
        <mxCell id="N0TiDbGJa8KcJAVbkekZ-51" value="&lt;div&gt;Valider le défi&lt;/div&gt;" style="rounded=1;whiteSpace=wrap;html=1;" parent="WIyWlLk6GJQsqaUBKTNV-1" vertex="1">
          <mxGeometry x="940" y="-122" width="120" height="30" as="geometry" />
        </mxCell>
        <mxCell id="N0TiDbGJa8KcJAVbkekZ-66" style="edgeStyle=orthogonalEdgeStyle;rounded=0;orthogonalLoop=1;jettySize=auto;html=1;exitX=0.5;exitY=0;exitDx=0;exitDy=0;entryX=0.5;entryY=1;entryDx=0;entryDy=0;" parent="WIyWlLk6GJQsqaUBKTNV-1" source="N0TiDbGJa8KcJAVbkekZ-62" target="N0TiDbGJa8KcJAVbkekZ-63" edge="1">
          <mxGeometry relative="1" as="geometry">
            <mxPoint x="1223" y="105" as="sourcePoint" />
          </mxGeometry>
        </mxCell>
        <mxCell id="N0TiDbGJa8KcJAVbkekZ-78" value="Non" style="edgeLabel;html=1;align=center;verticalAlign=middle;resizable=0;points=[];" parent="N0TiDbGJa8KcJAVbkekZ-66" connectable="0" vertex="1">
          <mxGeometry x="-0.4267" y="-1" relative="1" as="geometry">
            <mxPoint x="-15" y="-2" as="offset" />
          </mxGeometry>
        </mxCell>
        <mxCell id="N0TiDbGJa8KcJAVbkekZ-74" style="edgeStyle=orthogonalEdgeStyle;rounded=0;orthogonalLoop=1;jettySize=auto;html=1;exitX=1;exitY=0.5;exitDx=0;exitDy=0;entryX=0;entryY=0.5;entryDx=0;entryDy=0;" parent="WIyWlLk6GJQsqaUBKTNV-1" source="N0TiDbGJa8KcJAVbkekZ-62" target="N0TiDbGJa8KcJAVbkekZ-73" edge="1">
          <mxGeometry relative="1" as="geometry" />
        </mxCell>
        <mxCell id="N0TiDbGJa8KcJAVbkekZ-79" value="Oui" style="edgeLabel;html=1;align=center;verticalAlign=middle;resizable=0;points=[];" parent="N0TiDbGJa8KcJAVbkekZ-74" connectable="0" vertex="1">
          <mxGeometry x="-0.4317" y="2" relative="1" as="geometry">
            <mxPoint x="6" y="-8" as="offset" />
          </mxGeometry>
        </mxCell>
        <mxCell id="N0TiDbGJa8KcJAVbkekZ-62" value="Modifier nom utilisateur ?" style="rhombus;whiteSpace=wrap;html=1;" parent="WIyWlLk6GJQsqaUBKTNV-1" vertex="1">
          <mxGeometry x="1178.5" y="145" width="91" height="90" as="geometry" />
        </mxCell>
        <mxCell id="N0TiDbGJa8KcJAVbkekZ-67" style="edgeStyle=orthogonalEdgeStyle;rounded=0;orthogonalLoop=1;jettySize=auto;html=1;exitX=0.5;exitY=0;exitDx=0;exitDy=0;entryX=0.5;entryY=1;entryDx=0;entryDy=0;" parent="WIyWlLk6GJQsqaUBKTNV-1" source="N0TiDbGJa8KcJAVbkekZ-63" target="N0TiDbGJa8KcJAVbkekZ-64" edge="1">
          <mxGeometry relative="1" as="geometry" />
        </mxCell>
        <mxCell id="N0TiDbGJa8KcJAVbkekZ-80" value="" style="edgeStyle=orthogonalEdgeStyle;rounded=0;orthogonalLoop=1;jettySize=auto;html=1;" parent="WIyWlLk6GJQsqaUBKTNV-1" source="N0TiDbGJa8KcJAVbkekZ-63" target="N0TiDbGJa8KcJAVbkekZ-64" edge="1">
          <mxGeometry relative="1" as="geometry" />
        </mxCell>
        <mxCell id="N0TiDbGJa8KcJAVbkekZ-81" value="Non" style="edgeLabel;html=1;align=center;verticalAlign=middle;resizable=0;points=[];" parent="N0TiDbGJa8KcJAVbkekZ-80" connectable="0" vertex="1">
          <mxGeometry x="-0.2151" relative="1" as="geometry">
            <mxPoint x="-14" y="3" as="offset" />
          </mxGeometry>
        </mxCell>
        <mxCell id="N0TiDbGJa8KcJAVbkekZ-89" style="edgeStyle=orthogonalEdgeStyle;rounded=0;orthogonalLoop=1;jettySize=auto;html=1;exitX=1;exitY=0.5;exitDx=0;exitDy=0;entryX=0;entryY=0.5;entryDx=0;entryDy=0;" parent="WIyWlLk6GJQsqaUBKTNV-1" source="N0TiDbGJa8KcJAVbkekZ-63" target="N0TiDbGJa8KcJAVbkekZ-88" edge="1">
          <mxGeometry relative="1" as="geometry" />
        </mxCell>
        <mxCell id="N0TiDbGJa8KcJAVbkekZ-63" value="Modifier mail utilisateur ?" style="rhombus;whiteSpace=wrap;html=1;" parent="WIyWlLk6GJQsqaUBKTNV-1" vertex="1">
          <mxGeometry x="1178.5" y="-57" width="91" height="90" as="geometry" />
        </mxCell>
        <mxCell id="N0TiDbGJa8KcJAVbkekZ-68" style="edgeStyle=orthogonalEdgeStyle;rounded=0;orthogonalLoop=1;jettySize=auto;html=1;exitX=0;exitY=0.5;exitDx=0;exitDy=0;entryX=0;entryY=0.5;entryDx=0;entryDy=0;" parent="WIyWlLk6GJQsqaUBKTNV-1" source="N0TiDbGJa8KcJAVbkekZ-64" target="uRP_q7YqhGeEKX3p05OK-85" edge="1">
          <mxGeometry relative="1" as="geometry">
            <Array as="points">
              <mxPoint x="1110" y="-145" />
              <mxPoint x="1110" y="610" />
            </Array>
          </mxGeometry>
        </mxCell>
        <mxCell id="N0TiDbGJa8KcJAVbkekZ-82" value="Non" style="edgeLabel;html=1;align=center;verticalAlign=middle;resizable=0;points=[];" parent="N0TiDbGJa8KcJAVbkekZ-68" connectable="0" vertex="1">
          <mxGeometry x="-0.9417" y="-2" relative="1" as="geometry">
            <mxPoint x="4" y="-13" as="offset" />
          </mxGeometry>
        </mxCell>
        <mxCell id="N0TiDbGJa8KcJAVbkekZ-76" style="edgeStyle=orthogonalEdgeStyle;rounded=0;orthogonalLoop=1;jettySize=auto;html=1;exitX=0.5;exitY=0;exitDx=0;exitDy=0;entryX=1;entryY=0;entryDx=0;entryDy=0;" parent="WIyWlLk6GJQsqaUBKTNV-1" source="N0TiDbGJa8KcJAVbkekZ-72" target="N0TiDbGJa8KcJAVbkekZ-62" edge="1">
          <mxGeometry relative="1" as="geometry">
            <Array as="points">
              <mxPoint x="1496" y="125" />
              <mxPoint x="1247" y="125" />
            </Array>
          </mxGeometry>
        </mxCell>
        <mxCell id="N0TiDbGJa8KcJAVbkekZ-77" value="Non" style="edgeLabel;html=1;align=center;verticalAlign=middle;resizable=0;points=[];" parent="N0TiDbGJa8KcJAVbkekZ-76" connectable="0" vertex="1">
          <mxGeometry x="-0.7172" y="-2" relative="1" as="geometry">
            <mxPoint x="-11" y="12" as="offset" />
          </mxGeometry>
        </mxCell>
        <mxCell id="N0TiDbGJa8KcJAVbkekZ-84" style="edgeStyle=orthogonalEdgeStyle;rounded=0;orthogonalLoop=1;jettySize=auto;html=1;exitX=0.5;exitY=1;exitDx=0;exitDy=0;entryX=0.5;entryY=0;entryDx=0;entryDy=0;" parent="WIyWlLk6GJQsqaUBKTNV-1" source="N0TiDbGJa8KcJAVbkekZ-72" target="N0TiDbGJa8KcJAVbkekZ-83" edge="1">
          <mxGeometry relative="1" as="geometry" />
        </mxCell>
        <mxCell id="N0TiDbGJa8KcJAVbkekZ-85" value="Oui" style="edgeLabel;html=1;align=center;verticalAlign=middle;resizable=0;points=[];" parent="N0TiDbGJa8KcJAVbkekZ-84" connectable="0" vertex="1">
          <mxGeometry x="-0.4" y="-1" relative="1" as="geometry">
            <mxPoint x="16" as="offset" />
          </mxGeometry>
        </mxCell>
        <mxCell id="N0TiDbGJa8KcJAVbkekZ-72" value="Nom utilisateur disponible ?" style="rhombus;whiteSpace=wrap;html=1;" parent="WIyWlLk6GJQsqaUBKTNV-1" vertex="1">
          <mxGeometry x="1450" y="145" width="91" height="90" as="geometry" />
        </mxCell>
        <mxCell id="N0TiDbGJa8KcJAVbkekZ-75" style="edgeStyle=orthogonalEdgeStyle;rounded=0;orthogonalLoop=1;jettySize=auto;html=1;exitX=1;exitY=0.5;exitDx=0;exitDy=0;entryX=0;entryY=0.5;entryDx=0;entryDy=0;" parent="WIyWlLk6GJQsqaUBKTNV-1" source="N0TiDbGJa8KcJAVbkekZ-73" target="N0TiDbGJa8KcJAVbkekZ-72" edge="1">
          <mxGeometry relative="1" as="geometry" />
        </mxCell>
        <mxCell id="N0TiDbGJa8KcJAVbkekZ-73" value="Entrer le nouveau nom d&#39;utilisateur" style="rounded=1;whiteSpace=wrap;html=1;" parent="WIyWlLk6GJQsqaUBKTNV-1" vertex="1">
          <mxGeometry x="1300" y="170" width="120" height="40" as="geometry" />
        </mxCell>
        <mxCell id="N0TiDbGJa8KcJAVbkekZ-86" style="edgeStyle=orthogonalEdgeStyle;rounded=0;orthogonalLoop=1;jettySize=auto;html=1;exitX=0.5;exitY=1;exitDx=0;exitDy=0;entryX=1;entryY=0;entryDx=0;entryDy=0;" parent="WIyWlLk6GJQsqaUBKTNV-1" source="N0TiDbGJa8KcJAVbkekZ-83" target="uRP_q7YqhGeEKX3p05OK-116" edge="1">
          <mxGeometry relative="1" as="geometry">
            <Array as="points">
              <mxPoint x="1496" y="350" />
              <mxPoint x="1250" y="350" />
            </Array>
          </mxGeometry>
        </mxCell>
        <mxCell id="N0TiDbGJa8KcJAVbkekZ-83" value="Nom d&#39;utilisateur modifier avec succès" style="rounded=1;whiteSpace=wrap;html=1;" parent="WIyWlLk6GJQsqaUBKTNV-1" vertex="1">
          <mxGeometry x="1435.5" y="275" width="120" height="40" as="geometry" />
        </mxCell>
        <mxCell id="N0TiDbGJa8KcJAVbkekZ-91" style="edgeStyle=orthogonalEdgeStyle;rounded=0;orthogonalLoop=1;jettySize=auto;html=1;exitX=1;exitY=0.5;exitDx=0;exitDy=0;entryX=0;entryY=0.5;entryDx=0;entryDy=0;" parent="WIyWlLk6GJQsqaUBKTNV-1" source="N0TiDbGJa8KcJAVbkekZ-88" target="N0TiDbGJa8KcJAVbkekZ-90" edge="1">
          <mxGeometry relative="1" as="geometry" />
        </mxCell>
        <mxCell id="N0TiDbGJa8KcJAVbkekZ-88" value="Entrer le nouveau mail" style="rounded=1;whiteSpace=wrap;html=1;" parent="WIyWlLk6GJQsqaUBKTNV-1" vertex="1">
          <mxGeometry x="1300" y="-32" width="120" height="40" as="geometry" />
        </mxCell>
        <mxCell id="N0TiDbGJa8KcJAVbkekZ-94" style="edgeStyle=orthogonalEdgeStyle;rounded=0;orthogonalLoop=1;jettySize=auto;html=1;exitX=0.5;exitY=1;exitDx=0;exitDy=0;entryX=0.5;entryY=0;entryDx=0;entryDy=0;" parent="WIyWlLk6GJQsqaUBKTNV-1" source="N0TiDbGJa8KcJAVbkekZ-90" target="N0TiDbGJa8KcJAVbkekZ-92" edge="1">
          <mxGeometry relative="1" as="geometry" />
        </mxCell>
        <mxCell id="N0TiDbGJa8KcJAVbkekZ-111" value="Oui" style="edgeLabel;html=1;align=center;verticalAlign=middle;resizable=0;points=[];" parent="N0TiDbGJa8KcJAVbkekZ-94" connectable="0" vertex="1">
          <mxGeometry x="-0.2805" y="-2" relative="1" as="geometry">
            <mxPoint x="-11" as="offset" />
          </mxGeometry>
        </mxCell>
        <mxCell id="N0TiDbGJa8KcJAVbkekZ-109" style="edgeStyle=orthogonalEdgeStyle;rounded=0;orthogonalLoop=1;jettySize=auto;html=1;exitX=0.5;exitY=0;exitDx=0;exitDy=0;entryX=1;entryY=0;entryDx=0;entryDy=0;" parent="WIyWlLk6GJQsqaUBKTNV-1" source="N0TiDbGJa8KcJAVbkekZ-90" target="N0TiDbGJa8KcJAVbkekZ-63" edge="1">
          <mxGeometry relative="1" as="geometry">
            <Array as="points">
              <mxPoint x="1493" y="-77" />
              <mxPoint x="1247" y="-77" />
            </Array>
          </mxGeometry>
        </mxCell>
        <mxCell id="N0TiDbGJa8KcJAVbkekZ-110" value="Non" style="edgeLabel;html=1;align=center;verticalAlign=middle;resizable=0;points=[];" parent="N0TiDbGJa8KcJAVbkekZ-109" connectable="0" vertex="1">
          <mxGeometry x="-0.5155" y="-3" relative="1" as="geometry">
            <mxPoint x="32" y="-10" as="offset" />
          </mxGeometry>
        </mxCell>
        <mxCell id="N0TiDbGJa8KcJAVbkekZ-90" value="Mail du domaine univ-ubs.fr ?" style="rhombus;whiteSpace=wrap;html=1;" parent="WIyWlLk6GJQsqaUBKTNV-1" vertex="1">
          <mxGeometry x="1447.25" y="-57" width="91" height="90" as="geometry" />
        </mxCell>
        <mxCell id="N0TiDbGJa8KcJAVbkekZ-97" style="edgeStyle=orthogonalEdgeStyle;rounded=0;orthogonalLoop=1;jettySize=auto;html=1;exitX=1;exitY=0.5;exitDx=0;exitDy=0;entryX=0;entryY=0.5;entryDx=0;entryDy=0;" parent="WIyWlLk6GJQsqaUBKTNV-1" source="N0TiDbGJa8KcJAVbkekZ-92" target="N0TiDbGJa8KcJAVbkekZ-95" edge="1">
          <mxGeometry relative="1" as="geometry" />
        </mxCell>
        <mxCell id="N0TiDbGJa8KcJAVbkekZ-92" value="Mail modifier avec succès : verified = false" style="rounded=1;whiteSpace=wrap;html=1;fillColor=#ffe6cc;strokeColor=#d79b00;" parent="WIyWlLk6GJQsqaUBKTNV-1" vertex="1">
          <mxGeometry x="1435.5" y="63" width="114.5" height="40" as="geometry" />
        </mxCell>
        <mxCell id="N0TiDbGJa8KcJAVbkekZ-98" style="edgeStyle=orthogonalEdgeStyle;rounded=0;orthogonalLoop=1;jettySize=auto;html=1;exitX=0.5;exitY=1;exitDx=0;exitDy=0;entryX=1;entryY=0;entryDx=0;entryDy=0;" parent="WIyWlLk6GJQsqaUBKTNV-1" source="N0TiDbGJa8KcJAVbkekZ-95" target="uRP_q7YqhGeEKX3p05OK-116" edge="1">
          <mxGeometry relative="1" as="geometry">
            <Array as="points">
              <mxPoint x="1640" y="350" />
              <mxPoint x="1250" y="350" />
            </Array>
          </mxGeometry>
        </mxCell>
        <mxCell id="N0TiDbGJa8KcJAVbkekZ-95" value="Vérifier l&#39;email : verified = true" style="rounded=1;whiteSpace=wrap;html=1;fillColor=#ffe6cc;strokeColor=#d79b00;" parent="WIyWlLk6GJQsqaUBKTNV-1" vertex="1">
          <mxGeometry x="1580" y="63" width="120" height="40" as="geometry" />
        </mxCell>
        <mxCell id="N0TiDbGJa8KcJAVbkekZ-114" style="edgeStyle=orthogonalEdgeStyle;rounded=0;orthogonalLoop=1;jettySize=auto;html=1;exitX=1;exitY=0.5;exitDx=0;exitDy=0;entryX=1;entryY=0;entryDx=0;entryDy=0;" parent="WIyWlLk6GJQsqaUBKTNV-1" source="N0TiDbGJa8KcJAVbkekZ-112" target="uRP_q7YqhGeEKX3p05OK-116" edge="1">
          <mxGeometry relative="1" as="geometry">
            <Array as="points">
              <mxPoint x="1720" y="-145" />
              <mxPoint x="1720" y="350" />
              <mxPoint x="1250" y="350" />
            </Array>
          </mxGeometry>
        </mxCell>
        <mxCell id="N0TiDbGJa8KcJAVbkekZ-120" style="edgeStyle=orthogonalEdgeStyle;rounded=0;orthogonalLoop=1;jettySize=auto;html=1;exitX=0.5;exitY=0;exitDx=0;exitDy=0;entryX=0.5;entryY=1;entryDx=0;entryDy=0;" parent="WIyWlLk6GJQsqaUBKTNV-1" source="N0TiDbGJa8KcJAVbkekZ-118" target="N0TiDbGJa8KcJAVbkekZ-119" edge="1">
          <mxGeometry relative="1" as="geometry" />
        </mxCell>
        <mxCell id="N0TiDbGJa8KcJAVbkekZ-138" value="Oui" style="edgeLabel;html=1;align=center;verticalAlign=middle;resizable=0;points=[];" parent="N0TiDbGJa8KcJAVbkekZ-120" connectable="0" vertex="1">
          <mxGeometry x="-0.3636" y="3" relative="1" as="geometry">
            <mxPoint x="23" y="3" as="offset" />
          </mxGeometry>
        </mxCell>
        <mxCell id="N0TiDbGJa8KcJAVbkekZ-130" style="edgeStyle=orthogonalEdgeStyle;rounded=0;orthogonalLoop=1;jettySize=auto;html=1;exitX=1;exitY=0.5;exitDx=0;exitDy=0;entryX=0;entryY=0.5;entryDx=0;entryDy=0;" parent="WIyWlLk6GJQsqaUBKTNV-1" source="N0TiDbGJa8KcJAVbkekZ-118" target="N0TiDbGJa8KcJAVbkekZ-129" edge="1">
          <mxGeometry relative="1" as="geometry" />
        </mxCell>
        <mxCell id="N0TiDbGJa8KcJAVbkekZ-139" value="Non" style="edgeLabel;html=1;align=center;verticalAlign=middle;resizable=0;points=[];" parent="N0TiDbGJa8KcJAVbkekZ-130" connectable="0" vertex="1">
          <mxGeometry x="-0.6367" y="-2" relative="1" as="geometry">
            <mxPoint x="-17" y="-12" as="offset" />
          </mxGeometry>
        </mxCell>
        <mxCell id="N0TiDbGJa8KcJAVbkekZ-118" value="Voir le tableau des scores general ?" style="rhombus;whiteSpace=wrap;html=1;" parent="WIyWlLk6GJQsqaUBKTNV-1" vertex="1">
          <mxGeometry x="1830" y="560" width="100" height="100" as="geometry" />
        </mxCell>
        <mxCell id="N0TiDbGJa8KcJAVbkekZ-122" style="edgeStyle=orthogonalEdgeStyle;rounded=0;orthogonalLoop=1;jettySize=auto;html=1;exitX=0.5;exitY=0;exitDx=0;exitDy=0;entryX=0.5;entryY=1;entryDx=0;entryDy=0;" parent="WIyWlLk6GJQsqaUBKTNV-1" source="N0TiDbGJa8KcJAVbkekZ-119" target="N0TiDbGJa8KcJAVbkekZ-121" edge="1">
          <mxGeometry relative="1" as="geometry" />
        </mxCell>
        <mxCell id="N0TiDbGJa8KcJAVbkekZ-119" value="Cliquer sur &quot;Tableau des scores général&quot;" style="rounded=1;whiteSpace=wrap;html=1;" parent="WIyWlLk6GJQsqaUBKTNV-1" vertex="1">
          <mxGeometry x="1820" y="465" width="120" height="40" as="geometry" />
        </mxCell>
        <mxCell id="N0TiDbGJa8KcJAVbkekZ-124" style="edgeStyle=orthogonalEdgeStyle;rounded=0;orthogonalLoop=1;jettySize=auto;html=1;exitX=0.5;exitY=0;exitDx=0;exitDy=0;entryX=0.5;entryY=1;entryDx=0;entryDy=0;" parent="WIyWlLk6GJQsqaUBKTNV-1" source="N0TiDbGJa8KcJAVbkekZ-121" target="N0TiDbGJa8KcJAVbkekZ-123" edge="1">
          <mxGeometry relative="1" as="geometry" />
        </mxCell>
        <mxCell id="N0TiDbGJa8KcJAVbkekZ-126" value="Oui" style="edgeLabel;html=1;align=center;verticalAlign=middle;resizable=0;points=[];" parent="N0TiDbGJa8KcJAVbkekZ-124" connectable="0" vertex="1">
          <mxGeometry x="-0.4556" y="2" relative="1" as="geometry">
            <mxPoint x="-18" y="4" as="offset" />
          </mxGeometry>
        </mxCell>
        <mxCell id="-m6p2qVeGGhmwzsAfYyK-18" style="edgeStyle=orthogonalEdgeStyle;rounded=0;orthogonalLoop=1;jettySize=auto;html=1;exitX=0;exitY=0.5;exitDx=0;exitDy=0;entryX=0;entryY=0.5;entryDx=0;entryDy=0;" edge="1" parent="WIyWlLk6GJQsqaUBKTNV-1" source="N0TiDbGJa8KcJAVbkekZ-121" target="N0TiDbGJa8KcJAVbkekZ-118">
          <mxGeometry relative="1" as="geometry">
            <Array as="points">
              <mxPoint x="1790" y="375" />
              <mxPoint x="1790" y="610" />
            </Array>
          </mxGeometry>
        </mxCell>
        <mxCell id="N0TiDbGJa8KcJAVbkekZ-121" value="Intéressé par un profil ?" style="rhombus;whiteSpace=wrap;html=1;" parent="WIyWlLk6GJQsqaUBKTNV-1" vertex="1">
          <mxGeometry x="1834.5" y="330" width="91" height="90" as="geometry" />
        </mxCell>
        <mxCell id="-m6p2qVeGGhmwzsAfYyK-30" style="edgeStyle=orthogonalEdgeStyle;rounded=0;orthogonalLoop=1;jettySize=auto;html=1;exitX=0.5;exitY=0;exitDx=0;exitDy=0;entryX=0;entryY=0.5;entryDx=0;entryDy=0;" edge="1" parent="WIyWlLk6GJQsqaUBKTNV-1" source="N0TiDbGJa8KcJAVbkekZ-123" target="-m6p2qVeGGhmwzsAfYyK-28">
          <mxGeometry relative="1" as="geometry" />
        </mxCell>
        <mxCell id="N0TiDbGJa8KcJAVbkekZ-123" value="Cliquer sur le pseudo concerné" style="rounded=1;whiteSpace=wrap;html=1;" parent="WIyWlLk6GJQsqaUBKTNV-1" vertex="1">
          <mxGeometry x="1820" y="230" width="120" height="40" as="geometry" />
        </mxCell>
        <mxCell id="N0TiDbGJa8KcJAVbkekZ-131" style="edgeStyle=orthogonalEdgeStyle;rounded=0;orthogonalLoop=1;jettySize=auto;html=1;exitX=0.5;exitY=1;exitDx=0;exitDy=0;entryX=0.5;entryY=1;entryDx=0;entryDy=0;" parent="WIyWlLk6GJQsqaUBKTNV-1" source="N0TiDbGJa8KcJAVbkekZ-129" target="uRP_q7YqhGeEKX3p05OK-83" edge="1">
          <mxGeometry relative="1" as="geometry" />
        </mxCell>
        <mxCell id="N0TiDbGJa8KcJAVbkekZ-132" value="Oui" style="edgeLabel;html=1;align=center;verticalAlign=middle;resizable=0;points=[];" parent="N0TiDbGJa8KcJAVbkekZ-131" connectable="0" vertex="1">
          <mxGeometry x="-0.8068" y="4" relative="1" as="geometry">
            <mxPoint x="97" y="-19" as="offset" />
          </mxGeometry>
        </mxCell>
        <mxCell id="N0TiDbGJa8KcJAVbkekZ-135" style="edgeStyle=orthogonalEdgeStyle;rounded=0;orthogonalLoop=1;jettySize=auto;html=1;exitX=0.5;exitY=0;exitDx=0;exitDy=0;entryX=0.5;entryY=1;entryDx=0;entryDy=0;" parent="WIyWlLk6GJQsqaUBKTNV-1" source="N0TiDbGJa8KcJAVbkekZ-129" target="N0TiDbGJa8KcJAVbkekZ-134" edge="1">
          <mxGeometry relative="1" as="geometry" />
        </mxCell>
        <mxCell id="N0TiDbGJa8KcJAVbkekZ-137" value="Non" style="edgeLabel;html=1;align=center;verticalAlign=middle;resizable=0;points=[];" parent="N0TiDbGJa8KcJAVbkekZ-135" connectable="0" vertex="1">
          <mxGeometry x="-0.2727" relative="1" as="geometry">
            <mxPoint x="-15" y="5" as="offset" />
          </mxGeometry>
        </mxCell>
        <mxCell id="N0TiDbGJa8KcJAVbkekZ-129" value="Encore une action à réaliser sur l&#39;application ?" style="rhombus;whiteSpace=wrap;html=1;" parent="WIyWlLk6GJQsqaUBKTNV-1" vertex="1">
          <mxGeometry x="2310" y="545" width="130" height="130" as="geometry" />
        </mxCell>
        <mxCell id="N0TiDbGJa8KcJAVbkekZ-136" style="edgeStyle=orthogonalEdgeStyle;rounded=0;orthogonalLoop=1;jettySize=auto;html=1;exitX=0.5;exitY=0;exitDx=0;exitDy=0;entryX=0.5;entryY=0;entryDx=0;entryDy=0;" parent="WIyWlLk6GJQsqaUBKTNV-1" source="N0TiDbGJa8KcJAVbkekZ-134" target="uRP_q7YqhGeEKX3p05OK-64" edge="1">
          <mxGeometry relative="1" as="geometry">
            <Array as="points">
              <mxPoint x="2375" y="-340" />
              <mxPoint x="170" y="-340" />
            </Array>
          </mxGeometry>
        </mxCell>
        <mxCell id="N0TiDbGJa8KcJAVbkekZ-134" value="Cliquer sur &quot;Déconnexion&quot;" style="rounded=1;whiteSpace=wrap;html=1;" parent="WIyWlLk6GJQsqaUBKTNV-1" vertex="1">
          <mxGeometry x="2315" y="455" width="120" height="40" as="geometry" />
        </mxCell>
        <mxCell id="N0TiDbGJa8KcJAVbkekZ-140" value="Page d&#39;Acceuil" style="swimlane;whiteSpace=wrap;html=1;fillColor=#dae8fc;strokeColor=#6c8ebf;" parent="WIyWlLk6GJQsqaUBKTNV-1" vertex="1">
          <mxGeometry x="100" y="-310" width="440" height="980" as="geometry" />
        </mxCell>
        <mxCell id="-m6p2qVeGGhmwzsAfYyK-2" style="edgeStyle=orthogonalEdgeStyle;rounded=0;orthogonalLoop=1;jettySize=auto;html=1;exitX=0.75;exitY=1;exitDx=0;exitDy=0;entryX=0.5;entryY=1;entryDx=0;entryDy=0;" edge="1" parent="N0TiDbGJa8KcJAVbkekZ-140" source="uRP_q7YqhGeEKX3p05OK-71" target="-m6p2qVeGGhmwzsAfYyK-1">
          <mxGeometry relative="1" as="geometry" />
        </mxCell>
        <mxCell id="uRP_q7YqhGeEKX3p05OK-71" value="Se connecte" style="rounded=1;whiteSpace=wrap;html=1;" parent="N0TiDbGJa8KcJAVbkekZ-140" vertex="1">
          <mxGeometry x="314" y="690" width="120" height="30" as="geometry" />
        </mxCell>
        <mxCell id="-m6p2qVeGGhmwzsAfYyK-1" value="verified = true ?" style="rhombus;whiteSpace=wrap;html=1;fillColor=#ffe6cc;strokeColor=#d79b00;" vertex="1" parent="N0TiDbGJa8KcJAVbkekZ-140">
          <mxGeometry x="90" y="790" width="80" height="80" as="geometry" />
        </mxCell>
        <mxCell id="N0TiDbGJa8KcJAVbkekZ-141" value="Page Défis" style="swimlane;whiteSpace=wrap;html=1;fillColor=#dae8fc;strokeColor=#6c8ebf;" parent="WIyWlLk6GJQsqaUBKTNV-1" vertex="1">
          <mxGeometry x="540" y="-310" width="540" height="980" as="geometry" />
        </mxCell>
        <mxCell id="N0TiDbGJa8KcJAVbkekZ-30" value="Possède un flag/solution ?" style="rhombus;whiteSpace=wrap;html=1;" parent="N0TiDbGJa8KcJAVbkekZ-141" vertex="1">
          <mxGeometry x="127.5" y="249.5" width="100" height="87" as="geometry" />
        </mxCell>
        <mxCell id="-m6p2qVeGGhmwzsAfYyK-33" style="edgeStyle=orthogonalEdgeStyle;rounded=0;orthogonalLoop=1;jettySize=auto;html=1;exitX=0.5;exitY=0;exitDx=0;exitDy=0;entryX=0.5;entryY=1;entryDx=0;entryDy=0;" edge="1" parent="N0TiDbGJa8KcJAVbkekZ-141" source="-m6p2qVeGGhmwzsAfYyK-32" target="N0TiDbGJa8KcJAVbkekZ-30">
          <mxGeometry relative="1" as="geometry" />
        </mxCell>
        <mxCell id="-m6p2qVeGGhmwzsAfYyK-34" value="Non" style="edgeLabel;html=1;align=center;verticalAlign=middle;resizable=0;points=[];" vertex="1" connectable="0" parent="-m6p2qVeGGhmwzsAfYyK-33">
          <mxGeometry x="-0.137" y="1" relative="1" as="geometry">
            <mxPoint x="14" as="offset" />
          </mxGeometry>
        </mxCell>
        <mxCell id="-m6p2qVeGGhmwzsAfYyK-32" value="Défi déjà valider ?" style="rhombus;whiteSpace=wrap;html=1;" vertex="1" parent="N0TiDbGJa8KcJAVbkekZ-141">
          <mxGeometry x="127.5" y="373" width="100" height="87" as="geometry" />
        </mxCell>
        <mxCell id="-m6p2qVeGGhmwzsAfYyK-45" value="Page Défis" style="swimlane;whiteSpace=wrap;html=1;fillColor=#dae8fc;strokeColor=#6c8ebf;" vertex="1" parent="N0TiDbGJa8KcJAVbkekZ-141">
          <mxGeometry width="540" height="480" as="geometry" />
        </mxCell>
        <mxCell id="-m6p2qVeGGhmwzsAfYyK-46" value="Possède un flag/solution ?" style="rhombus;whiteSpace=wrap;html=1;" vertex="1" parent="-m6p2qVeGGhmwzsAfYyK-45">
          <mxGeometry x="127.5" y="249.5" width="100" height="87" as="geometry" />
        </mxCell>
        <mxCell id="-m6p2qVeGGhmwzsAfYyK-47" style="edgeStyle=orthogonalEdgeStyle;rounded=0;orthogonalLoop=1;jettySize=auto;html=1;exitX=0.5;exitY=0;exitDx=0;exitDy=0;entryX=0.5;entryY=1;entryDx=0;entryDy=0;" edge="1" parent="-m6p2qVeGGhmwzsAfYyK-45" source="-m6p2qVeGGhmwzsAfYyK-49" target="-m6p2qVeGGhmwzsAfYyK-46">
          <mxGeometry relative="1" as="geometry" />
        </mxCell>
        <mxCell id="-m6p2qVeGGhmwzsAfYyK-48" value="Non" style="edgeLabel;html=1;align=center;verticalAlign=middle;resizable=0;points=[];" vertex="1" connectable="0" parent="-m6p2qVeGGhmwzsAfYyK-47">
          <mxGeometry x="-0.137" y="1" relative="1" as="geometry">
            <mxPoint x="14" as="offset" />
          </mxGeometry>
        </mxCell>
        <mxCell id="-m6p2qVeGGhmwzsAfYyK-49" value="Défi déjà valider ?" style="rhombus;whiteSpace=wrap;html=1;" vertex="1" parent="-m6p2qVeGGhmwzsAfYyK-45">
          <mxGeometry x="127.5" y="373" width="100" height="87" as="geometry" />
        </mxCell>
        <mxCell id="N0TiDbGJa8KcJAVbkekZ-142" value="Page Compte" style="swimlane;whiteSpace=wrap;html=1;fillColor=#dae8fc;strokeColor=#6c8ebf;" parent="WIyWlLk6GJQsqaUBKTNV-1" vertex="1">
          <mxGeometry x="1080" y="-310" width="660" height="980" as="geometry" />
        </mxCell>
        <mxCell id="N0TiDbGJa8KcJAVbkekZ-112" value="Modifier son mot de passe via le mail envoyé" style="rounded=1;whiteSpace=wrap;html=1;" parent="N0TiDbGJa8KcJAVbkekZ-142" vertex="1">
          <mxGeometry x="247.25" y="145" width="120" height="40" as="geometry" />
        </mxCell>
        <mxCell id="-m6p2qVeGGhmwzsAfYyK-7" style="edgeStyle=orthogonalEdgeStyle;rounded=0;orthogonalLoop=1;jettySize=auto;html=1;exitX=0.5;exitY=0;exitDx=0;exitDy=0;entryX=0;entryY=0.5;entryDx=0;entryDy=0;" edge="1" parent="N0TiDbGJa8KcJAVbkekZ-142" source="N0TiDbGJa8KcJAVbkekZ-64" target="-m6p2qVeGGhmwzsAfYyK-6">
          <mxGeometry relative="1" as="geometry" />
        </mxCell>
        <mxCell id="N0TiDbGJa8KcJAVbkekZ-64" value="Modifier mot de passe ?" style="rhombus;whiteSpace=wrap;html=1;" parent="N0TiDbGJa8KcJAVbkekZ-142" vertex="1">
          <mxGeometry x="98.5" y="120" width="91" height="90" as="geometry" />
        </mxCell>
        <mxCell id="N0TiDbGJa8KcJAVbkekZ-113" style="edgeStyle=orthogonalEdgeStyle;rounded=0;orthogonalLoop=1;jettySize=auto;html=1;exitX=1;exitY=0.5;exitDx=0;exitDy=0;entryX=0;entryY=0.5;entryDx=0;entryDy=0;" parent="N0TiDbGJa8KcJAVbkekZ-142" source="N0TiDbGJa8KcJAVbkekZ-64" target="N0TiDbGJa8KcJAVbkekZ-112" edge="1">
          <mxGeometry relative="1" as="geometry" />
        </mxCell>
        <mxCell id="-m6p2qVeGGhmwzsAfYyK-13" style="edgeStyle=orthogonalEdgeStyle;rounded=0;orthogonalLoop=1;jettySize=auto;html=1;exitX=1;exitY=0.5;exitDx=0;exitDy=0;entryX=0;entryY=0.5;entryDx=0;entryDy=0;" edge="1" parent="N0TiDbGJa8KcJAVbkekZ-142" source="-m6p2qVeGGhmwzsAfYyK-6" target="-m6p2qVeGGhmwzsAfYyK-11">
          <mxGeometry relative="1" as="geometry" />
        </mxCell>
        <mxCell id="-m6p2qVeGGhmwzsAfYyK-14" value="Oui" style="edgeLabel;html=1;align=center;verticalAlign=middle;resizable=0;points=[];" vertex="1" connectable="0" parent="-m6p2qVeGGhmwzsAfYyK-13">
          <mxGeometry x="-0.0987" y="1" relative="1" as="geometry">
            <mxPoint x="-1" y="14" as="offset" />
          </mxGeometry>
        </mxCell>
        <mxCell id="-m6p2qVeGGhmwzsAfYyK-6" value="Supprimer mon compte ?" style="rhombus;whiteSpace=wrap;html=1;" vertex="1" parent="N0TiDbGJa8KcJAVbkekZ-142">
          <mxGeometry x="267.25" y="60" width="80" height="75" as="geometry" />
        </mxCell>
        <mxCell id="-m6p2qVeGGhmwzsAfYyK-16" style="edgeStyle=orthogonalEdgeStyle;rounded=0;orthogonalLoop=1;jettySize=auto;html=1;exitX=1;exitY=0.5;exitDx=0;exitDy=0;" edge="1" parent="N0TiDbGJa8KcJAVbkekZ-142" source="-m6p2qVeGGhmwzsAfYyK-11">
          <mxGeometry relative="1" as="geometry">
            <mxPoint x="-910" y="510" as="targetPoint" />
            <Array as="points">
              <mxPoint x="467" y="98" />
              <mxPoint x="467" y="-30" />
              <mxPoint x="-909" y="-30" />
              <mxPoint x="-909" y="510" />
            </Array>
          </mxGeometry>
        </mxCell>
        <mxCell id="-m6p2qVeGGhmwzsAfYyK-17" value="Oui" style="edgeLabel;html=1;align=center;verticalAlign=middle;resizable=0;points=[];" vertex="1" connectable="0" parent="-m6p2qVeGGhmwzsAfYyK-16">
          <mxGeometry x="-0.9676" y="-3" relative="1" as="geometry">
            <mxPoint x="-12" y="24" as="offset" />
          </mxGeometry>
        </mxCell>
        <mxCell id="-m6p2qVeGGhmwzsAfYyK-11" value="Valider ?" style="rhombus;whiteSpace=wrap;html=1;" vertex="1" parent="N0TiDbGJa8KcJAVbkekZ-142">
          <mxGeometry x="367.25" y="60" width="80" height="75" as="geometry" />
        </mxCell>
        <mxCell id="-m6p2qVeGGhmwzsAfYyK-26" style="edgeStyle=orthogonalEdgeStyle;rounded=0;orthogonalLoop=1;jettySize=auto;html=1;exitX=1;exitY=0.5;exitDx=0;exitDy=0;entryX=0;entryY=0.5;entryDx=0;entryDy=0;" edge="1" parent="N0TiDbGJa8KcJAVbkekZ-142" source="-m6p2qVeGGhmwzsAfYyK-20" target="-m6p2qVeGGhmwzsAfYyK-25">
          <mxGeometry relative="1" as="geometry" />
        </mxCell>
        <mxCell id="-m6p2qVeGGhmwzsAfYyK-20" value="Voir son profil public ?" style="rhombus;whiteSpace=wrap;html=1;" vertex="1" parent="N0TiDbGJa8KcJAVbkekZ-142">
          <mxGeometry x="290" y="730" width="100" height="100" as="geometry" />
        </mxCell>
        <mxCell id="-m6p2qVeGGhmwzsAfYyK-25" value="Cliquer sur &quot;voir son profil public&quot;" style="rounded=1;whiteSpace=wrap;html=1;" vertex="1" parent="N0TiDbGJa8KcJAVbkekZ-142">
          <mxGeometry x="460" y="760" width="120" height="40" as="geometry" />
        </mxCell>
        <mxCell id="N0TiDbGJa8KcJAVbkekZ-143" value="Page Tableau des scores" style="swimlane;whiteSpace=wrap;html=1;fillColor=#dae8fc;strokeColor=#6c8ebf;" parent="WIyWlLk6GJQsqaUBKTNV-1" vertex="1">
          <mxGeometry x="1740" y="-310" width="260" height="980" as="geometry" />
        </mxCell>
        <mxCell id="N0TiDbGJa8KcJAVbkekZ-144" value="Page profil de joueur" style="swimlane;whiteSpace=wrap;html=1;fillColor=#dae8fc;strokeColor=#6c8ebf;" parent="WIyWlLk6GJQsqaUBKTNV-1" vertex="1">
          <mxGeometry x="2000" y="-310" width="260" height="980" as="geometry" />
        </mxCell>
        <mxCell id="-m6p2qVeGGhmwzsAfYyK-28" value="Voir les statitistiques / badges" style="rounded=1;whiteSpace=wrap;html=1;" vertex="1" parent="N0TiDbGJa8KcJAVbkekZ-144">
          <mxGeometry x="70" y="490" width="120" height="40" as="geometry" />
        </mxCell>
        <mxCell id="-m6p2qVeGGhmwzsAfYyK-3" style="edgeStyle=orthogonalEdgeStyle;rounded=0;orthogonalLoop=1;jettySize=auto;html=1;exitX=0.5;exitY=0;exitDx=0;exitDy=0;entryX=1;entryY=1;entryDx=0;entryDy=0;" edge="1" parent="WIyWlLk6GJQsqaUBKTNV-1" source="-m6p2qVeGGhmwzsAfYyK-1" target="uRP_q7YqhGeEKX3p05OK-78">
          <mxGeometry relative="1" as="geometry" />
        </mxCell>
        <mxCell id="-m6p2qVeGGhmwzsAfYyK-5" style="edgeStyle=orthogonalEdgeStyle;rounded=0;orthogonalLoop=1;jettySize=auto;html=1;exitX=1;exitY=0.5;exitDx=0;exitDy=0;entryX=0.5;entryY=0;entryDx=0;entryDy=0;" edge="1" parent="WIyWlLk6GJQsqaUBKTNV-1" source="-m6p2qVeGGhmwzsAfYyK-1" target="N0TiDbGJa8KcJAVbkekZ-1">
          <mxGeometry relative="1" as="geometry">
            <Array as="points">
              <mxPoint x="350" y="520" />
            </Array>
          </mxGeometry>
        </mxCell>
        <mxCell id="-m6p2qVeGGhmwzsAfYyK-8" style="edgeStyle=orthogonalEdgeStyle;rounded=0;orthogonalLoop=1;jettySize=auto;html=1;exitX=0.5;exitY=0;exitDx=0;exitDy=0;entryX=0;entryY=0.5;entryDx=0;entryDy=0;" edge="1" parent="WIyWlLk6GJQsqaUBKTNV-1" source="-m6p2qVeGGhmwzsAfYyK-6" target="uRP_q7YqhGeEKX3p05OK-85">
          <mxGeometry relative="1" as="geometry">
            <Array as="points">
              <mxPoint x="1387" y="-270" />
              <mxPoint x="1110" y="-270" />
              <mxPoint x="1110" y="610" />
            </Array>
          </mxGeometry>
        </mxCell>
        <mxCell id="-m6p2qVeGGhmwzsAfYyK-9" value="Non" style="edgeLabel;html=1;align=center;verticalAlign=middle;resizable=0;points=[];" vertex="1" connectable="0" parent="-m6p2qVeGGhmwzsAfYyK-8">
          <mxGeometry x="-0.81" y="1" relative="1" as="geometry">
            <mxPoint x="76" y="9" as="offset" />
          </mxGeometry>
        </mxCell>
        <mxCell id="-m6p2qVeGGhmwzsAfYyK-12" style="edgeStyle=orthogonalEdgeStyle;rounded=0;orthogonalLoop=1;jettySize=auto;html=1;exitX=0.5;exitY=0;exitDx=0;exitDy=0;entryX=0;entryY=0.5;entryDx=0;entryDy=0;" edge="1" parent="WIyWlLk6GJQsqaUBKTNV-1" source="-m6p2qVeGGhmwzsAfYyK-11" target="uRP_q7YqhGeEKX3p05OK-85">
          <mxGeometry relative="1" as="geometry">
            <Array as="points">
              <mxPoint x="1487" y="-270" />
              <mxPoint x="1110" y="-270" />
              <mxPoint x="1110" y="610" />
            </Array>
          </mxGeometry>
        </mxCell>
        <mxCell id="-m6p2qVeGGhmwzsAfYyK-15" value="Non" style="edgeLabel;html=1;align=center;verticalAlign=middle;resizable=0;points=[];" vertex="1" connectable="0" parent="-m6p2qVeGGhmwzsAfYyK-12">
          <mxGeometry x="-0.935" relative="1" as="geometry">
            <mxPoint x="-5" y="10" as="offset" />
          </mxGeometry>
        </mxCell>
        <mxCell id="-m6p2qVeGGhmwzsAfYyK-23" style="edgeStyle=orthogonalEdgeStyle;rounded=0;orthogonalLoop=1;jettySize=auto;html=1;exitX=0.5;exitY=1;exitDx=0;exitDy=0;entryX=0;entryY=0.5;entryDx=0;entryDy=0;" edge="1" parent="WIyWlLk6GJQsqaUBKTNV-1" source="-m6p2qVeGGhmwzsAfYyK-20" target="N0TiDbGJa8KcJAVbkekZ-118">
          <mxGeometry relative="1" as="geometry" />
        </mxCell>
        <mxCell id="-m6p2qVeGGhmwzsAfYyK-24" value="Non" style="edgeLabel;html=1;align=center;verticalAlign=middle;resizable=0;points=[];" vertex="1" connectable="0" parent="-m6p2qVeGGhmwzsAfYyK-23">
          <mxGeometry x="-0.896" y="3" relative="1" as="geometry">
            <mxPoint x="4" y="-16" as="offset" />
          </mxGeometry>
        </mxCell>
        <mxCell id="-m6p2qVeGGhmwzsAfYyK-29" style="edgeStyle=orthogonalEdgeStyle;rounded=0;orthogonalLoop=1;jettySize=auto;html=1;exitX=1;exitY=0.5;exitDx=0;exitDy=0;entryX=0;entryY=0.5;entryDx=0;entryDy=0;" edge="1" parent="WIyWlLk6GJQsqaUBKTNV-1" source="-m6p2qVeGGhmwzsAfYyK-25" target="-m6p2qVeGGhmwzsAfYyK-28">
          <mxGeometry relative="1" as="geometry">
            <Array as="points">
              <mxPoint x="1750" y="470" />
              <mxPoint x="1750" y="200" />
            </Array>
          </mxGeometry>
        </mxCell>
        <mxCell id="-m6p2qVeGGhmwzsAfYyK-31" style="edgeStyle=orthogonalEdgeStyle;rounded=0;orthogonalLoop=1;jettySize=auto;html=1;exitX=0.5;exitY=1;exitDx=0;exitDy=0;entryX=0;entryY=0.5;entryDx=0;entryDy=0;" edge="1" parent="WIyWlLk6GJQsqaUBKTNV-1" source="-m6p2qVeGGhmwzsAfYyK-28" target="N0TiDbGJa8KcJAVbkekZ-129">
          <mxGeometry relative="1" as="geometry" />
        </mxCell>
        <mxCell id="-m6p2qVeGGhmwzsAfYyK-36" style="edgeStyle=orthogonalEdgeStyle;rounded=0;orthogonalLoop=1;jettySize=auto;html=1;exitX=0;exitY=0.5;exitDx=0;exitDy=0;entryX=0;entryY=0.5;entryDx=0;entryDy=0;" edge="1" parent="WIyWlLk6GJQsqaUBKTNV-1" source="-m6p2qVeGGhmwzsAfYyK-32" target="uRP_q7YqhGeEKX3p05OK-83">
          <mxGeometry relative="1" as="geometry" />
        </mxCell>
        <mxCell id="-m6p2qVeGGhmwzsAfYyK-37" value="Oui" style="edgeLabel;html=1;align=center;verticalAlign=middle;resizable=0;points=[];" vertex="1" connectable="0" parent="-m6p2qVeGGhmwzsAfYyK-36">
          <mxGeometry x="-0.869" y="1" relative="1" as="geometry">
            <mxPoint x="12" y="-33" as="offset" />
          </mxGeometry>
        </mxCell>
        <mxCell id="-m6p2qVeGGhmwzsAfYyK-38" value="&lt;div&gt;&lt;font style=&quot;font-size: 33px;&quot;&gt;Diagramme d&#39;activité de l&#39;application Def&#39;IUT&lt;/font&gt;&lt;/div&gt;&lt;div align=&quot;left&quot;&gt;&lt;font style=&quot;font-size: 33px;&quot;&gt;&lt;br&gt;&lt;/font&gt;&lt;/div&gt;&lt;div style=&quot;font-size: 20px;&quot; align=&quot;left&quot;&gt;&lt;font style=&quot;font-size: 20px;&quot;&gt;&lt;span style=&quot;white-space: pre;&quot;&gt;&#x9;&lt;/span&gt;- En relation avec l&#39;état d&#39;un compte&lt;br&gt;&lt;/font&gt;&lt;/div&gt;&lt;div style=&quot;font-size: 20px;&quot; align=&quot;left&quot;&gt;&lt;font style=&quot;font-size: 20px;&quot;&gt;&lt;br&gt;&lt;/font&gt;&lt;/div&gt;&lt;div style=&quot;font-size: 20px;&quot; align=&quot;left&quot;&gt;&lt;font style=&quot;font-size: 20px;&quot;&gt;&lt;span style=&quot;white-space: pre;&quot;&gt;&#x9;&lt;/span&gt;- Inidique sur quelle page les actions se trouvent&lt;br&gt;&lt;/font&gt;&lt;/div&gt;" style="text;html=1;align=center;verticalAlign=middle;resizable=0;points=[];autosize=1;strokeColor=none;fillColor=none;" vertex="1" parent="WIyWlLk6GJQsqaUBKTNV-1">
          <mxGeometry x="40" y="705" width="680" height="160" as="geometry" />
        </mxCell>
        <mxCell id="-m6p2qVeGGhmwzsAfYyK-39" value="" style="rounded=1;whiteSpace=wrap;html=1;fillColor=#ffe6cc;strokeColor=#d79b00;" vertex="1" parent="WIyWlLk6GJQsqaUBKTNV-1">
          <mxGeometry x="60" y="780" width="30" height="30" as="geometry" />
        </mxCell>
        <mxCell id="-m6p2qVeGGhmwzsAfYyK-40" value="Page" style="swimlane;whiteSpace=wrap;html=1;fillColor=#dae8fc;strokeColor=#6c8ebf;" vertex="1" parent="WIyWlLk6GJQsqaUBKTNV-1">
          <mxGeometry x="20" y="830" width="70" height="50" as="geometry" />
        </mxCell>
      </root>
    </mxGraphModel>
  </diagram>
</mxfile>
